<svg xmlns="http://www.w3.org/2000/svg" width="180" height="52" fill="none" viewBox="0 0 180 52">
  <rect width="179" height="51" x=".5" y=".5" fill="#F3F6FF" rx="7.5"/>
  <rect width="179" height="51" x=".5" y=".5" stroke="#EFF2FC" rx="7.5"/>
  <path fill="#33354D" d="M43.57 25.809c-.037-3.91 3.283-5.812 3.435-5.9-1.88-2.673-4.794-3.038-5.818-3.067-2.448-.252-4.822 1.427-6.068 1.427-1.272 0-3.192-1.403-5.26-1.362-2.663.04-5.154 1.543-6.52 3.877-2.82 4.76-.717 11.752 1.984 15.6 1.351 1.883 2.93 3.987 4.997 3.913 2.022-.082 2.777-1.257 5.217-1.257 2.417 0 3.127 1.257 5.234 1.21 2.17-.035 3.536-1.893 4.84-3.794 1.562-2.16 2.189-4.286 2.214-4.395-.052-.017-4.215-1.566-4.256-6.252Zm-3.982-11.498c1.087-1.326 1.831-3.13 1.625-4.96-1.574.068-3.542 1.061-4.676 2.358-1.003 1.143-1.898 3.016-1.667 4.777 1.768.129 3.583-.87 4.718-2.175ZM72.76 40.026h-2.826l-1.548-4.742h-5.38l-1.474 4.742h-2.75l5.33-16.144h3.291l5.357 16.144Zm-4.84-6.731-1.4-4.216c-.148-.43-.425-1.444-.835-3.04h-.05c-.163.686-.425 1.7-.786 3.04l-1.375 4.216h4.446Zm18.547.768c0 1.98-.549 3.544-1.646 4.693-.983 1.023-2.204 1.533-3.66 1.533-1.573 0-2.703-.55-3.391-1.652h-.05v6.132h-2.652V32.218c0-1.245-.034-2.522-.099-3.833h2.333l.148 1.846h.05c.885-1.39 2.227-2.085 4.029-2.085 1.408 0 2.584.543 3.525 1.628.943 1.087 1.413 2.516 1.413 4.289Zm-2.703.094c0-1.133-.26-2.067-.786-2.802-.573-.767-1.343-1.15-2.309-1.15-.654 0-1.25.214-1.78.635a2.929 2.929 0 0 0-1.044 1.665c-.082.32-.123.582-.123.789v1.94c0 .847.266 1.562.798 2.145.533.584 1.225.875 2.076.875.999 0 1.776-.376 2.332-1.126.558-.75.837-1.74.837-2.97Zm16.435-.094c0 1.98-.549 3.544-1.647 4.693-.982 1.023-2.203 1.533-3.66 1.533-1.572 0-2.702-.55-3.389-1.652h-.05v6.132h-2.652V32.218c0-1.245-.034-2.522-.098-3.833h2.333l.148 1.846h.05c.883-1.39 2.225-2.085 4.028-2.085 1.407 0 2.583.543 3.526 1.628.94 1.087 1.411 2.516 1.411 4.289Zm-2.702.094c0-1.133-.263-2.067-.788-2.802-.574-.767-1.341-1.15-2.308-1.15-.656 0-1.249.214-1.782.635a2.93 2.93 0 0 0-1.042 1.665 3.37 3.37 0 0 0-.123.789v1.94c0 .847.266 1.562.796 2.145.532.583 1.224.875 2.078.875.999 0 1.776-.376 2.333-1.126.557-.75.836-1.74.836-2.97Zm18.055 1.342c0 1.373-.489 2.49-1.47 3.353-1.079.943-2.581 1.413-4.51 1.413-1.782 0-3.211-.335-4.292-1.005l.615-2.156a7.41 7.41 0 0 0 3.835 1.031c.999 0 1.776-.22 2.335-.66.556-.439.833-1.029.833-1.764 0-.655-.228-1.207-.688-1.654-.456-.448-1.219-.864-2.284-1.249-2.899-1.054-4.347-2.598-4.347-4.629 0-1.327.508-2.415 1.524-3.262 1.013-.848 2.364-1.271 4.054-1.271 1.506 0 2.758.256 3.757.767l-.663 2.108c-.933-.495-1.988-.742-3.169-.742-.933 0-1.662.224-2.185.67-.442.4-.663.886-.663 1.462 0 .638.253 1.166.76 1.58.442.384 1.244.8 2.409 1.247 1.425.559 2.471 1.213 3.144 1.962.671.748 1.005 1.683 1.005 2.799Zm8.771-5.173h-2.924v5.652c0 1.438.515 2.156 1.548 2.156.474 0 .867-.04 1.178-.12l.073 1.964c-.522.19-1.21.286-2.063.286-1.047 0-1.866-.312-2.457-.934-.588-.624-.885-1.67-.885-3.138v-5.868h-1.741v-1.94h1.741v-2.132l2.606-.767v2.898h2.924v1.943Zm13.192 3.784c0 1.79-.525 3.258-1.573 4.407-1.099 1.183-2.557 1.772-4.375 1.772-1.751 0-3.146-.566-4.186-1.699s-1.56-2.563-1.56-4.287c0-1.804.535-3.281 1.608-4.43 1.072-1.15 2.517-1.725 4.335-1.725 1.752 0 3.162.566 4.225 1.7 1.018 1.1 1.526 2.521 1.526 4.262Zm-2.752.084c0-1.074-.236-1.995-.712-2.762-.556-.93-1.351-1.393-2.381-1.393-1.067 0-1.877.465-2.433 1.393-.476.769-.712 1.704-.712 2.81 0 1.074.236 1.995.712 2.761.574.93 1.375 1.393 2.409 1.393 1.013 0 1.808-.473 2.381-1.417.489-.782.736-1.713.736-2.785Zm11.374-3.534a4.72 4.72 0 0 0-.836-.072c-.933 0-1.655.344-2.163 1.032-.441.606-.663 1.373-.663 2.298v6.108h-2.651l.025-7.975a61.64 61.64 0 0 0-.1-3.664h2.311l.097 2.227h.073c.28-.765.722-1.382 1.326-1.844a3.264 3.264 0 0 1 1.918-.623c.245 0 .466.017.663.047v2.466ZM158 33.655c0 .463-.031.854-.097 1.173h-7.958c.032 1.15.416 2.03 1.155 2.636.671.543 1.538.814 2.603.814 1.178 0 2.253-.183 3.22-.55l.415 1.795c-1.129.48-2.463.72-4.002.72-1.852 0-3.305-.532-4.362-1.594-1.055-1.061-1.584-2.486-1.584-4.275 0-1.755.491-3.217 1.475-4.382 1.031-1.245 2.423-1.867 4.175-1.867 1.72 0 3.023.622 3.908 1.867.7.988 1.052 2.211 1.052 3.663Zm-2.529-.67c.017-.767-.156-1.43-.515-1.989-.459-.72-1.165-1.078-2.114-1.078-.867 0-1.573.35-2.112 1.054-.441.559-.704 1.23-.785 2.011h5.526v.001ZM67.043 13.951c0 1.428-.44 2.503-1.317 3.224-.812.666-1.967 1-3.462 1a16.46 16.46 0 0 1-1.908-.095v-7.8c.694-.11 1.44-.165 2.246-.165 1.425 0 2.498.302 3.223.906.81.683 1.218 1.66 1.218 2.931Zm-1.375.035c0-.925-.251-1.635-.754-2.13-.503-.494-1.237-.741-2.203-.741-.411 0-.76.027-1.05.082v5.931c.16.024.453.035.88.035.998 0 1.768-.27 2.31-.811.543-.541.817-1.33.817-2.366Zm8.664 1.212c0 .88-.257 1.6-.772 2.165-.54.582-1.256.871-2.149.871-.86 0-1.546-.277-2.058-.835-.51-.557-.765-1.26-.765-2.106 0-.886.263-1.612.79-2.177.528-.564 1.237-.846 2.13-.846.861 0 1.553.277 2.077.834.497.541.747 1.24.747 2.094Zm-1.352.041c0-.527-.117-.98-.35-1.357-.273-.456-.663-.684-1.17-.684-.523 0-.921.228-1.195.684-.234.377-.35.837-.35 1.38 0 .528.117.98.35 1.358.283.456.676.684 1.183.684.498 0 .889-.232 1.17-.696.241-.385.362-.841.362-1.369Zm11.127-2.853-1.835 5.719h-1.195l-.76-2.484a18.21 18.21 0 0 1-.472-1.847h-.023a13.3 13.3 0 0 1-.472 1.847l-.807 2.484h-1.208l-1.726-5.719h1.34l.663 2.719c.16.643.293 1.255.398 1.835h.024c.097-.478.257-1.087.484-1.823l.832-2.73h1.063l.797 2.671c.193.652.35 1.28.47 1.883h.037a17.58 17.58 0 0 1 .398-1.882l.712-2.672h1.28Zm6.759 5.719h-1.303v-3.276c0-1.009-.394-1.514-1.183-1.514a1.19 1.19 0 0 0-.941.416c-.24.278-.362.606-.362.98v3.392h-1.304V14.02c0-.502-.016-1.047-.047-1.636h1.145l.061.894h.036a1.86 1.86 0 0 1 .676-.69 2.246 2.246 0 0 1 1.182-.322c.547 0 1.003.172 1.365.518.45.423.675 1.055.675 1.895v3.426Zm3.596 0H93.16V9.762h1.303v8.343Zm7.677-2.907c0 .88-.258 1.6-.773 2.165-.54.582-1.256.871-2.149.871-.862 0-1.547-.277-2.058-.835-.51-.557-.765-1.26-.765-2.106 0-.886.263-1.612.79-2.177.528-.564 1.237-.846 2.13-.846.861 0 1.552.277 2.077.834.498.541.748 1.24.748 2.094Zm-1.354.041c0-.527-.117-.98-.35-1.357-.272-.456-.663-.684-1.168-.684-.525 0-.923.228-1.195.684-.234.377-.35.837-.35 1.38 0 .528.117.98.35 1.358.282.456.675.684 1.183.684.497 0 .887-.232 1.168-.696.243-.385.362-.841.362-1.369Zm7.664 2.866h-1.17l-.098-.66h-.036c-.4.526-.971.79-1.713.79-.554 0-1.001-.174-1.339-.519a1.602 1.602 0 0 1-.459-1.164c0-.699.299-1.231.9-1.6.6-.369 1.443-.55 2.529-.541v-.107c0-.753-.405-1.13-1.218-1.13-.578 0-1.088.143-1.529.424l-.265-.835c.545-.328 1.218-.493 2.012-.493 1.533 0 2.302.788 2.302 2.365v2.106c0 .571.028 1.026.084 1.364Zm-1.353-1.966v-.881c-1.439-.025-2.158.36-2.158 1.152 0 .298.082.521.25.67.168.15.382.224.637.224.286 0 .554-.089.798-.264a1.08 1.08 0 0 0 .473-.9Zm8.762 1.966h-1.157l-.061-.919h-.036c-.369.699-.999 1.048-1.883 1.048-.707 0-1.296-.27-1.762-.811-.467-.541-.699-1.244-.699-2.106 0-.926.252-1.675.76-2.248a2.36 2.36 0 0 1 1.81-.8c.788 0 1.339.258 1.652.776h.025V9.762h1.305v6.802c0 .557.015 1.07.046 1.54Zm-1.351-2.412v-.954c0-.165-.012-.298-.036-.4a1.439 1.439 0 0 0-.471-.77 1.302 1.302 0 0 0-.873-.312c-.486 0-.867.188-1.147.565-.277.378-.418.86-.418 1.448 0 .565.133 1.023.401 1.377.282.376.663.564 1.14.564.428 0 .77-.157 1.03-.471.251-.29.374-.64.374-1.047Zm12.503-.495c0 .88-.257 1.6-.773 2.165-.54.582-1.254.871-2.148.871-.86 0-1.546-.277-2.058-.835-.51-.557-.765-1.26-.765-2.106 0-.886.262-1.612.79-2.177.527-.564 1.236-.846 2.131-.846.86 0 1.553.277 2.075.834.498.541.748 1.24.748 2.094Zm-1.351.041c0-.527-.117-.98-.35-1.357-.275-.456-.663-.684-1.17-.684-.523 0-.921.228-1.196.684-.234.377-.35.837-.35 1.38 0 .528.117.98.35 1.358.282.456.675.684 1.183.684.498 0 .89-.232 1.171-.696.24-.385.362-.841.362-1.369Zm8.362 2.866h-1.303v-3.276c0-1.009-.393-1.514-1.183-1.514-.387 0-.699.139-.94.416a1.445 1.445 0 0 0-.362.98v3.392h-1.306V14.02c0-.502-.015-1.047-.046-1.636h1.145l.061.894h.036c.153-.278.38-.507.676-.69a2.249 2.249 0 0 1 1.183-.322c.546 0 1.001.172 1.363.518.452.423.676 1.055.676 1.895v3.426Zm8.775-4.767h-1.435v2.778c0 .706.255 1.06.76 1.06.234 0 .428-.02.581-.06l.033.964c-.257.095-.596.142-1.012.142-.515 0-.916-.153-1.206-.458-.291-.306-.435-.82-.435-1.542v-2.884h-.858v-.952h.858v-1.048l1.277-.376v1.423h1.436v.953h.001Zm6.903 4.767h-1.305v-3.252c0-1.024-.393-1.538-1.181-1.538-.604 0-1.018.298-1.244.892a1.546 1.546 0 0 0-.061.457v3.44h-1.303V9.761h1.303v3.447h.025c.411-.628.999-.94 1.762-.94.54 0 .986.172 1.341.517.442.431.663 1.072.663 1.918v3.4Zm7.121-3.13a3 3 0 0 1-.049.576h-3.91c.017.565.204.996.566 1.294.331.267.757.4 1.28.4.578 0 1.106-.09 1.581-.27l.204.883c-.556.236-1.21.353-1.968.353-.908 0-1.624-.26-2.141-.782-.52-.522-.778-1.222-.778-2.1 0-.863.24-1.58.724-2.153.505-.612 1.189-.917 2.051-.917.843 0 1.484.305 1.917.917.35.485.523 1.085.523 1.799Zm-1.245-.329a1.683 1.683 0 0 0-.252-.977c-.227-.353-.571-.53-1.038-.53a1.25 1.25 0 0 0-1.037.518 1.89 1.89 0 0 0-.387.99h2.714Z"/>
</svg>
