<svg xmlns="http://www.w3.org/2000/svg" width="180" height="52" fill="none" viewBox="0 0 180 52">
  <rect width="144" height="41.6" fill="#0B0F19" rx="8" transform="matrix(1.25 0 0 -1.25 0 52)"/>
  <path fill="#fff" d="M66.505 14.96c0 .95-.292 1.713-.867 2.28-.66.675-1.521 1.014-2.576 1.014-1.008 0-1.869-.345-2.575-1.024-.707-.69-1.06-1.536-1.06-2.548 0-1.013.353-1.859 1.06-2.543.706-.685 1.567-1.03 2.575-1.03.502 0 .98.102 1.437.29.455.19.825.446 1.094.762l-.61.6c-.468-.54-1.106-.805-1.921-.805-.735 0-1.373.25-1.914.756-.535.507-.804 1.164-.804 1.97s.269 1.468.804 1.975c.541.5 1.179.756 1.914.756.78 0 1.437-.256 1.955-.762.341-.334.535-.796.586-1.386h-2.541v-.823h3.39c.04.178.053.35.053.517Zm5.378-2.855h-3.184v2.165h2.87v.823H68.7v2.165h3.184v.839h-4.086v-6.83h4.086v.838Zm3.795 5.992h-.901v-5.992h-1.953v-.839h4.81v.84h-1.956v5.99Zm5.436 0v-6.83h.9v6.83h-.9Zm4.89 0h-.895v-5.992h-1.96v-.839h4.815v.84h-1.96v5.99Zm11.066-.879c-.69.69-1.545 1.035-2.565 1.035-1.025 0-1.88-.344-2.57-1.035-.689-.69-1.032-1.535-1.032-2.536 0-1.002.343-1.848 1.032-2.537.69-.69 1.544-1.035 2.57-1.035 1.014 0 1.869.344 2.559 1.04.694.696 1.037 1.536 1.037 2.532 0 1-.343 1.847-1.031 2.536Zm-4.469-.572c.52.51 1.151.767 1.904.767.747 0 1.384-.256 1.898-.767.518-.512.78-1.168.78-1.964 0-.797-.262-1.453-.78-1.964-.514-.512-1.151-.768-1.898-.768-.753 0-1.384.256-1.904.768-.517.51-.78 1.167-.78 1.964 0 .796.263 1.452.78 1.964Zm6.764 1.451v-6.83h1.095l3.401 5.312h.04l-.04-1.314v-3.999h.9v6.83h-.939l-3.562-5.574h-.04l.04 1.32v4.255h-.895Zm-8.683 9.976c-2.74 0-4.98 2.036-4.98 4.846 0 2.788 2.24 4.846 4.98 4.846 2.747 0 4.986-2.059 4.986-4.846 0-2.81-2.24-4.846-4.986-4.846Zm0 7.783c-1.504 0-2.798-1.212-2.798-2.937 0-1.747 1.294-2.938 2.798-2.938s2.804 1.19 2.804 2.938c0 1.725-1.3 2.937-2.804 2.937Zm-10.866-7.783c-2.747 0-4.98 2.036-4.98 4.846 0 2.788 2.233 4.846 4.98 4.846 2.745 0 4.98-2.059 4.98-4.846 0-2.81-2.235-4.846-4.98-4.846Zm0 7.783c-1.505 0-2.804-1.212-2.804-2.937 0-1.747 1.299-2.938 2.804-2.938 1.504 0 2.798 1.19 2.798 2.938 0 1.725-1.294 2.937-2.798 2.937Zm-12.93-6.298v2.06h5.037c-.148 1.15-.541 1.996-1.145 2.586-.736.712-1.88 1.502-3.892 1.502-3.1 0-5.527-2.442-5.527-5.469 0-3.026 2.427-5.469 5.527-5.469 1.676 0 2.895.64 3.795 1.469l1.487-1.451c-1.26-1.174-2.934-2.076-5.282-2.076-4.251 0-7.823 3.377-7.823 7.527s3.572 7.527 7.823 7.527c2.297 0 4.023-.734 5.38-2.113 1.39-1.357 1.823-3.266 1.823-4.807 0-.478-.04-.919-.114-1.286h-7.09Zm52.873 1.597c-.41-1.084-1.675-3.082-4.251-3.082-2.552 0-4.678 1.964-4.678 4.846 0 2.715 2.104 4.846 4.923 4.846a4.947 4.947 0 0 0 4.137-2.148l-1.692-1.101c-.564.806-1.333 1.34-2.445 1.34-1.104 0-1.896-.494-2.404-1.468l6.639-2.682-.229-.551Zm-6.768 1.613a2.687 2.687 0 0 1 2.592-2.825c.866 0 1.601.423 1.847 1.028l-4.439 1.797Zm-5.396 4.702h2.182V23.227h-2.182V37.47Zm-3.574-8.318h-.073c-.49-.567-1.425-1.08-2.61-1.08-2.485 0-4.758 2.131-4.758 4.863 0 2.716 2.273 4.83 4.758 4.83 1.185 0 2.12-.517 2.61-1.102h.073v.696c0 1.852-1.014 2.848-2.649 2.848-1.334 0-2.16-.94-2.502-1.73l-1.898.773c.547 1.285 1.996 2.865 4.4 2.865 2.558 0 4.717-1.47 4.717-5.046v-8.702h-2.068v.785Zm-2.496 6.704c-1.504 0-2.763-1.23-2.763-2.921 0-1.708 1.259-2.954 2.763-2.954 1.482 0 2.65 1.246 2.65 2.954 0 1.692-1.168 2.921-2.65 2.921Zm28.451-12.629h-5.219V37.47h2.176v-5.397h3.043c2.417 0 4.788-1.707 4.788-4.423 0-2.715-2.377-4.423-4.788-4.423Zm.057 6.865h-3.1V25.21h3.1a2.501 2.501 0 0 1 2.553 2.44 2.516 2.516 0 0 1-2.553 2.443Zm13.454-2.046c-1.573 0-3.208.678-3.88 2.18l1.931.79c.416-.79 1.18-1.046 1.988-1.046 1.129 0 2.275.662 2.292 1.831v.15c-.394-.222-1.237-.551-2.274-.551-2.08 0-4.2 1.118-4.2 3.204 0 1.909 1.704 3.138 3.619 3.138 1.465 0 2.273-.645 2.781-1.396h.074v1.1h2.102v-5.462c0-2.526-1.931-3.939-4.433-3.939Zm-.263 7.804c-.711 0-1.703-.344-1.703-1.206 0-1.102 1.237-1.525 2.307-1.525.959 0 1.408.206 1.99.478-.171 1.319-1.333 2.253-2.594 2.253Zm12.354-7.493-2.501 6.175h-.075l-2.586-6.175h-2.347l3.886 8.628-2.217 4.801h2.274L158 28.357h-2.422ZM135.96 37.47h2.182V23.227h-2.182V37.47Z"/>
  <path fill="url(#a)" d="M22.541 11.878c-.343.35-.541.895-.541 1.602v25.197c0 .707.198 1.252.541 1.602l.085.077 14.462-14.114v-.333L22.626 11.795l-.085.083Z"/>
  <path fill="url(#b)" d="m41.902 30.95-4.815-4.708v-.333l4.821-4.707.108.061 5.71 3.172c1.629.9 1.629 2.381 0 3.287l-5.71 3.166-.114.061Z"/>
  <path fill="url(#c)" d="m42.016 30.888-4.93-4.812L22.54 40.279c.541.556 1.424.623 2.427.067l17.049-9.458Z"/>
  <path fill="url(#d)" d="m42.016 21.263-17.049-9.458c-1.003-.55-1.886-.483-2.427.073l14.547 14.198 4.929-4.813Z"/>
  <defs>
    <linearGradient id="a" x1="35.804" x2="16.688" y1="38.94" y2="19.36" gradientUnits="userSpaceOnUse">
      <stop stop-color="#00A0FF"/>
      <stop offset=".007" stop-color="#00A1FF"/>
      <stop offset=".26" stop-color="#00BEFF"/>
      <stop offset=".512" stop-color="#00D2FF"/>
      <stop offset=".76" stop-color="#00DFFF"/>
      <stop offset="1" stop-color="#00E3FF"/>
    </linearGradient>
    <linearGradient id="b" x1="49.847" x2="21.61" y1="26.074" y2="26.074" gradientUnits="userSpaceOnUse">
      <stop stop-color="#FFE000"/>
      <stop offset=".409" stop-color="#FFBD00"/>
      <stop offset=".775" stop-color="orange"/>
      <stop offset="1" stop-color="#FF9C00"/>
    </linearGradient>
    <linearGradient id="c" x1="39.335" x2="13.412" y1="23.459" y2="-3.092" gradientUnits="userSpaceOnUse">
      <stop stop-color="#FF3A44"/>
      <stop offset="1" stop-color="#C31162"/>
    </linearGradient>
    <linearGradient id="d" x1="18.878" x2="30.454" y1="48.663" y2="36.806" gradientUnits="userSpaceOnUse">
      <stop stop-color="#32A071"/>
      <stop offset=".069" stop-color="#2DA771"/>
      <stop offset=".476" stop-color="#15CF74"/>
      <stop offset=".801" stop-color="#06E775"/>
      <stop offset="1" stop-color="#00F076"/>
    </linearGradient>
  </defs>
</svg>
