<svg xmlns="http://www.w3.org/2000/svg" width="28" height="28" fill="none" viewBox="0 0 28 28">
  <path fill="url(#a)" d="M22.148 14.055a3.285 3.285 0 0 0-3.28 3.281 3.285 3.285 0 0 0 3.28 3.282h4.649l.055-.003.054.003c.604 0 1.094-.49 1.094-1.094v-8.586a4.37 4.37 0 0 0-1.813-3.543L22.466 1.29a1.093 1.093 0 0 0-1.51-.36l-2.744 1.702L16.974.538a1.094 1.094 0 0 0-1.51-.379L4.928 6.563H3.28a1.095 1.095 0 0 1-1.093-1.067c.014-.59.5-1.066 1.093-1.066h2.024a1.094 1.094 0 1 0 0-2.187H3.28a3.287 3.287 0 0 0-3.19 2.52c-.058.133-.09.279-.09.433v18.429A4.38 4.38 0 0 0 4.375 28h19.25a4.37 4.37 0 0 0 4.15-2.99 1.094 1.094 0 1 0-2.074-.692 2.185 2.185 0 0 1-2.076 1.495H4.375a2.19 2.19 0 0 1-2.188-2.188V8.563c.343.121.71.187 1.094.187h20.344a2.19 2.19 0 0 1 2.188 2.188v3.117h-3.665Zm3.665 4.375h-3.665a1.095 1.095 0 0 1 0-2.188h3.665v2.188ZM9.14 6.563l6.514-3.96 1.165 1.972a1.081 1.081 0 0 0 .157.266l1.017 1.722H9.14Zm11.394 0-1.21-2.047 1.848-1.146 1.946 3.193h-2.584Z"/>
  <defs>
    <linearGradient id="a" x1="0" x2="28" y1="14.067" y2="14.067" gradientUnits="userSpaceOnUse">
      <stop stop-color="#6366F1"/>
      <stop offset=".5" stop-color="#8B5CF6"/>
      <stop offset="1" stop-color="#D946EF"/>
    </linearGradient>
  </defs>
</svg>
