<svg xmlns="http://www.w3.org/2000/svg" width="28" height="28" fill="none" viewBox="0 0 28 28">
  <path fill="url(#a)" d="M13.945 21.656c-5.03 0-7.372-4.222-7.47-4.401A1.094 1.094 0 0 1 8.4 16.214c.003.004.474.847 1.412 1.667 1.205 1.054 2.596 1.588 4.134 1.588 3.742 0 5.528-3.223 5.546-3.255a1.094 1.094 0 0 1 1.924 1.04c-.097.18-2.438 4.402-7.47 4.402Zm7.299 4.326a1.094 1.094 0 1 0-1.133-1.87 11.792 11.792 0 0 1-6.111 1.7C7.487 25.813 2.187 20.514 2.187 14c0-6.513 5.3-11.813 11.813-11.813 6.513 0 11.813 5.3 11.813 11.813 0 2.33-.693 4.596-2.003 6.556a1.094 1.094 0 1 0 1.818 1.216A13.942 13.942 0 0 0 28 14a13.91 13.91 0 0 0-4.1-9.9A13.908 13.908 0 0 0 14 0a13.91 13.91 0 0 0-9.9 4.1A13.909 13.909 0 0 0 0 14a13.91 13.91 0 0 0 4.1 9.9A13.909 13.909 0 0 0 14 28c2.56 0 5.065-.698 7.244-2.018Zm.358-14.607a2.738 2.738 0 0 0-2.735-2.734 2.737 2.737 0 0 0-2.734 2.734 1.094 1.094 0 1 0 2.187 0 .547.547 0 0 1 1.094 0 1.094 1.094 0 1 0 2.188 0Zm-9.68 0a2.737 2.737 0 0 0-2.735-2.734 2.737 2.737 0 0 0-2.734 2.734 1.094 1.094 0 1 0 2.188 0 .547.547 0 0 1 1.093 0 1.094 1.094 0 1 0 2.188 0Z"/>
  <defs>
    <linearGradient id="a" x1="0" x2="28" y1="14.067" y2="14.067" gradientUnits="userSpaceOnUse">
      <stop stop-color="#6366F1"/>
      <stop offset=".5" stop-color="#8B5CF6"/>
      <stop offset="1" stop-color="#D946EF"/>
    </linearGradient>
  </defs>
</svg>
