<svg xmlns="http://www.w3.org/2000/svg" width="28" height="28" fill="none" viewBox="0 0 28 28">
  <path fill="url(#a)" d="M25.813 21.983V2.734a.548.548 0 0 0-.547-.547H22.86a.548.548 0 0 0-.547.547v23.077h4.593a1.094 1.094 0 1 1 0 2.187H1.096c-.604 0-1.094-.49-1.094-1.094v-7.82a2.737 2.737 0 0 1 2.734-2.734h2.406a2.737 2.737 0 0 1 2.734 2.734v2.899a1.094 1.094 0 1 1-2.187 0v-2.899a.547.547 0 0 0-.547-.546H2.736a.548.548 0 0 0-.547.546v6.727h7.875V11.483a2.737 2.737 0 0 1 2.734-2.734h2.406a2.737 2.737 0 0 1 2.734 2.734v10.5a1.094 1.094 0 0 1-2.187 0v-10.5a.547.547 0 0 0-.547-.546h-2.406a.547.547 0 0 0-.547.546v14.328h7.875V2.734A2.737 2.737 0 0 1 22.86 0h2.406A2.737 2.737 0 0 1 28 2.734v19.249a1.094 1.094 0 1 1-2.187 0ZM4.357 9.788H2.728c-.269 0-.54-.169-.54-.492a1.094 1.094 0 1 0-2.188 0c0 1.469 1.145 2.626 2.626 2.677v.604a1.094 1.094 0 1 0 2.187 0v-.633c1.505-.21 2.626-1.448 2.626-2.99V8.86c0-1.72-1.383-3.117-3.082-3.117H3.355a.868.868 0 0 1-.89-.867v-.079c0-.49.383-.859.89-.859h.947c.279 0 .567.187.567.499a1.094 1.094 0 0 0 2.187 0c0-1.311-.968-2.405-2.243-2.639v-.703a1.094 1.094 0 1 0-2.187 0v.74a3.053 3.053 0 0 0-1.44.792 3.011 3.011 0 0 0-.907 2.17v.08c0 .825.321 1.597.906 2.172a3.073 3.073 0 0 0 2.17.881h1.002c.485 0 .895.426.895.93v.095c0 .476-.385.834-.895.834Z"/>
  <defs>
    <linearGradient id="a" x1="0" x2="28" y1="14.066" y2="14.066" gradientUnits="userSpaceOnUse">
      <stop stop-color="#6366F1"/>
      <stop offset=".5" stop-color="#8B5CF6"/>
      <stop offset="1" stop-color="#D946EF"/>
    </linearGradient>
  </defs>
</svg>
