<svg xmlns="http://www.w3.org/2000/svg" width="28" height="28" fill="none" viewBox="0 0 28 28">
  <path fill="url(#a)" d="M26.322 22.544a8.485 8.485 0 0 0 1.677-5.07c0-2.935-1.522-5.66-4.09-7.36-.237-2.616-1.458-5.041-3.5-6.91C18.152 1.138 15.157 0 11.976 0S5.799 1.138 3.542 3.204c-2.285 2.091-3.543 4.88-3.543 7.85 0 2.286.737 4.452 2.137 6.306L.08 22.45a1.094 1.094 0 0 0 1.455 1.41l5.868-2.587c.737.282 1.496.493 2.272.632a9.417 9.417 0 0 0 3.309 3.222c1.54.9 3.317 1.381 5.146 1.395.027.002.054.004.081.004 1.264 0 2.49-.218 3.648-.65l4.606 2.031a1.09 1.09 0 0 0 1.203-.215c.32-.31.42-.783.252-1.196l-1.597-3.952Zm-2.267.23.827 2.045-2.562-1.13a1.093 1.093 0 0 0-.87-.004 8.204 8.204 0 0 1-3.196.653l-.044-.002c-2.155 0-4.192-.842-5.615-2.244a12.752 12.752 0 0 0 5.149-1.347 1.094 1.094 0 1 0-.991-1.95 10.593 10.593 0 0 1-4.777 1.126c-1.455 0-2.856-.283-4.163-.84a1.093 1.093 0 0 0-.87.005l-3.827 1.686 1.288-3.186c.153-.378.083-.81-.181-1.12-1.332-1.563-2.036-3.434-2.036-5.412 0-4.889 4.39-8.867 9.789-8.867 5.397 0 9.789 3.978 9.789 8.867 0 1.58-.465 3.13-1.343 4.483a1.094 1.094 0 1 0 1.835 1.191c.78-1.201 1.3-2.528 1.541-3.906 1.282 1.255 2.014 2.908 2.014 4.652 0 1.527-.545 2.973-1.575 4.181-.264.31-.334.742-.182 1.12Zm-11.04-6.094a1.094 1.094 0 1 1-2.188 0 1.094 1.094 0 0 1 2.188 0Zm3.061-8.195.001.046a4.098 4.098 0 0 1-2.492 3.774.866.866 0 0 0-.516.804v.07a1.094 1.094 0 0 1-2.188 0v-.07a3.05 3.05 0 0 1 1.845-2.816 1.913 1.913 0 0 0 1.163-1.762 1.916 1.916 0 0 0-1.914-1.914 1.916 1.916 0 0 0-1.913 1.914 1.094 1.094 0 1 1-2.188 0 4.106 4.106 0 0 1 4.101-4.101 4.106 4.106 0 0 1 4.101 4.055Z"/>
  <defs>
    <linearGradient id="a" x1="-.001" x2="27.999" y1="14.067" y2="14.067" gradientUnits="userSpaceOnUse">
      <stop stop-color="#6366F1"/>
      <stop offset=".5" stop-color="#8B5CF6"/>
      <stop offset="1" stop-color="#D946EF"/>
    </linearGradient>
  </defs>
</svg>
