<svg xmlns="http://www.w3.org/2000/svg" width="28" height="22" fill="none" viewBox="0 0 28 22">
  <path fill="url(#a)" d="M22.531 13.413c.604 0 1.094.49 1.094 1.094v1.312c0 .604-.49 1.094-1.094 1.094h-2.515c-.604 0-1.094-.49-1.094-1.094v-1.312c0-.604.49-1.094 1.094-1.094h2.515Zm3.282-1.969V8.163H2.188v8.743a2.19 2.19 0 0 0 2.187 2.188h19.25a2.19 2.19 0 0 0 2.188-2.188 1.094 1.094 0 1 1 2.187 0 4.38 4.38 0 0 1-4.375 4.375H4.375A4.38 4.38 0 0 1 0 16.906V5.094A4.38 4.38 0 0 1 4.375.719h19.25A4.38 4.38 0 0 1 28 5.094v6.35a1.094 1.094 0 1 1-2.188 0Zm0-5.469v-.881a2.19 2.19 0 0 0-2.188-2.188H4.375a2.19 2.19 0 0 0-2.188 2.188v.881h23.625ZM5.468 10.35a1.094 1.094 0 1 0 0 2.188h9.023a1.094 1.094 0 0 0 0-2.188H5.47Z"/>
  <defs>
    <linearGradient id="a" x1="0" x2="28" y1="11.049" y2="11.049" gradientUnits="userSpaceOnUse">
      <stop stop-color="#6366F1"/>
      <stop offset=".5" stop-color="#8B5CF6"/>
      <stop offset="1" stop-color="#D946EF"/>
    </linearGradient>
  </defs>
</svg>
