<svg xmlns="http://www.w3.org/2000/svg" width="28" height="28" fill="none" viewBox="0 0 28 28">
  <path fill="url(#a)" d="M13.945 28a1.09 1.09 0 0 1-.489-.115c-.128-.064-3.17-1.607-6.352-5.066a26.901 26.901 0 0 1-4.554-6.756C1.106 12.995.248 9.636.002 6.08a1.094 1.094 0 0 1 1.02-1.167 3.835 3.835 0 0 0 3.572-3.82C4.594.49 5.084 0 5.687 0h16.625c.604 0 1.094.49 1.094 1.094a3.835 3.835 0 0 0 3.57 3.82 1.093 1.093 0 0 1 1.017 1.193c-.374 3.95-1.464 7.642-3.24 10.977a1.094 1.094 0 0 1-1.931-1.028c1.488-2.794 2.455-5.866 2.88-9.144a6.043 6.043 0 0 1-4.383-4.724H6.68a6.042 6.042 0 0 1-4.411 4.73c.575 5.519 2.72 10.343 6.383 14.354 2.193 2.4 4.343 3.817 5.286 4.377 1.032-.628 3.527-2.314 5.956-5.238a1.094 1.094 0 1 1 1.683 1.397c-3.457 4.162-6.986 5.996-7.135 6.072-.156.08-.327.12-.498.12Zm.846-5.92a1.094 1.094 0 0 0-.213-1.531 20.497 20.497 0 0 1-2.66-2.408 19.836 19.836 0 0 1-4.81-8.98 10.493 10.493 0 0 0 2.828-3.34 1.094 1.094 0 0 0-1.93-1.032A8.248 8.248 0 0 1 5.28 7.781a1.094 1.094 0 0 0-.468 1.131c.832 4.072 2.684 7.678 5.503 10.716a22.68 22.68 0 0 0 2.944 2.666 1.092 1.092 0 0 0 1.532-.213Z"/>
  <defs>
    <linearGradient id="a" x1="-.001" x2="27.998" y1="14.067" y2="14.067" gradientUnits="userSpaceOnUse">
      <stop stop-color="#6366F1"/>
      <stop offset=".5" stop-color="#8B5CF6"/>
      <stop offset="1" stop-color="#D946EF"/>
    </linearGradient>
  </defs>
</svg>
